<svg width="44" height="45" viewBox="0 0 44 45" fill="none" xmlns="http://www.w3.org/2000/svg">
<path d="M35.9601 21.9136C38.0343 22.303 30.4427 39.4562 29.6274 39.1447C28.888 40.1377 27.703 41.3839 26.0724 42.9026C25.5548 43.4477 24.8514 44.1877 23.9622 44.1877H12.6317C11.7425 44.1877 11.0391 43.4477 10.5196 42.9026C7.48408 40.1767 5.18804 36.9057 3.63143 33.0895C1.55911 28.0078 0.521973 23.7828 0.521973 20.4339C0.521973 19.363 1.5591 17.9417 2.29854 17.9417H34.2934C34.739 17.9417 36.0719 19.8303 36.0719 20.4339C36.0719 21.0375 36.034 21.5437 35.9601 21.9136Z" fill="white"/>
<g opacity="0.7">
<path d="M25.8586 16.9539H13.5271C13.3792 16.5468 12.6568 16.0866 11.3618 15.2193C10.0649 14.3697 9.4165 13.4139 9.4165 12.3696C9.4165 11.5377 9.73121 10.7589 10.3607 10.0332C10.9902 9.30751 11.7125 8.81173 12.5278 8.52853C12.306 9.36044 12.1942 10.0863 12.1942 10.7058C12.1942 11.3431 12.9166 12.1926 14.3613 13.3077C15.8042 14.4052 16.5265 15.3787 16.5265 16.2106C16.5265 16.6177 16.4905 16.7592 16.4165 16.9539H22.6373C22.7852 16.2636 22.8592 15.9627 22.8592 15.6972C22.8592 14.6529 22.3415 13.7501 21.3044 12.989C20.2673 12.2279 19.2302 11.3961 18.1931 10.458C17.156 9.5199 16.6384 8.36923 16.6384 6.98861C16.6384 5.53719 17.139 4.17441 18.1381 2.93539C19.1373 1.69637 20.3791 0.899904 21.8599 0.545898C21.1925 2.75843 20.8607 3.97962 20.8607 4.17433C20.8607 5.21864 21.9149 6.65246 24.0252 8.47559C26.1373 10.3164 27.1914 11.9271 27.1914 13.3077C27.1914 14.4052 26.7478 15.5025 25.8586 16.9539Z" fill="white"/>
<path d="M36.0031 21.9436C38.0546 22.321 39.761 23.3709 41.1191 25.0609C42.49 26.7673 43.1755 28.7363 43.1755 30.935C43.1755 33.2156 42.3973 35.2662 40.8427 37.1039C39.1379 39.0728 36.8802 40.0738 34.0649 40.0738C33.1031 40.0738 32.1764 39.9426 31.2881 39.7293C31.01 39.6472 30.5051 39.4834 29.7718 39.2045L29.6216 39.1548C29.9987 39.2861 31.6363 35.9722 31.622 35.9558C32.2131 36.2676 33.028 36.4149 34.0649 36.4149C35.7682 36.4149 37.1199 35.8574 38.1201 34.7581C39.1203 33.6588 39.6204 32.3788 39.6204 30.935C39.6204 29.6388 39.213 28.49 38.3981 27.4563C37.6775 26.5539 36.7828 25.9635 35.7155 25.6682C36.3418 23.568 36.5575 22.0416 35.9535 21.9268L36.0031 21.9436Z" fill="white"/>
</g>
</svg>
